<svg width="187" height="125" viewBox="0 0 187 125" fill="none" xmlns="http://www.w3.org/2000/svg">
<path d="M125.066 107.224L130.919 98.9431L127.992 92.5183L133.775 88.8775" stroke="#74AA80" stroke-opacity="0.92" stroke-width="2" stroke-miterlimit="10" stroke-linecap="round" stroke-linejoin="round"/>
<path d="M142.484 107.224L136.702 98.9431L139.629 92.5183L133.775 88.8775" stroke="#74AA80" stroke-opacity="0.92" stroke-width="2" stroke-miterlimit="10" stroke-linecap="round" stroke-linejoin="round"/>
<path d="M90.3715 35.0517V56.8247" stroke="#74AA80" stroke-opacity="0.92" stroke-width="2" stroke-miterlimit="10" stroke-linecap="round" stroke-linejoin="round"/>
<path d="M90.5857 65.4626C92.9512 65.4626 94.8689 63.5449 94.8689 61.1793C94.8689 58.8138 92.9512 56.8961 90.5857 56.8961C88.2201 56.8961 86.3024 58.8138 86.3024 61.1793C86.3024 63.5449 88.2201 65.4626 90.5857 65.4626Z" stroke="#74AA80" stroke-opacity="0.92" stroke-width="2" stroke-miterlimit="10" stroke-linecap="round" stroke-linejoin="round"/>
<path d="M115.428 75.5995L111.788 89.8056" stroke="#74AA80" stroke-opacity="0.92" stroke-width="2" stroke-miterlimit="10" stroke-linecap="round" stroke-linejoin="round"/>
<path d="M151.407 75.5995L155.048 89.8056" stroke="#74AA80" stroke-opacity="0.92" stroke-width="2" stroke-miterlimit="10" stroke-linecap="round" stroke-linejoin="round"/>
<path d="M106.862 42.2617C106.862 42.8328 106.862 43.4039 106.862 43.9037C106.862 44.5461 107.219 47.8299 107.219 47.8299C101.865 46.9733 101.294 50.4713 101.865 53.184C103.15 59.1091 107.362 62.4643 109.503 62.2501C114.429 78.2409 125.28 87.4498 133.561 87.4498C141.842 87.4498 152.692 78.2409 157.618 62.2501C159.76 62.4643 164.471 59.2519 165.114 53.184C165.542 49.0435 163.044 47.4016 160.188 48.2583C160.188 47.6158 160.259 44.6175 160.259 43.975" stroke="#74AA80" stroke-opacity="0.92" stroke-width="2" stroke-miterlimit="10" stroke-linecap="round" stroke-linejoin="round"/>
<path d="M162.187 39.9774L185.388 32.5531L134.489 1L83.5897 32.5531L103.935 39.6204L105.577 39.0493" stroke="#74AA80" stroke-opacity="0.92" stroke-width="2" stroke-miterlimit="10" stroke-linecap="round" stroke-linejoin="round"/>
<path d="M179.962 100.157C175.394 98.0151 160.474 92.8752 154.477 89.8056L137.059 115.719C135.274 117.504 132.347 117.504 130.562 115.719L111.788 89.8056C105.791 92.8038 91.4423 97.9437 86.7307 100.157C80.0203 103.369 80.7342 110.508 80.7342 110.508V124H133.275H133.346H185.887V110.508C185.959 110.508 186.673 103.369 179.962 100.157Z" stroke="#74AA80" stroke-opacity="0.92" stroke-width="2" stroke-miterlimit="10" stroke-linecap="round" stroke-linejoin="round"/>
<path d="M132.775 24.058C122.853 24.058 113.572 26.1283 105.791 29.5549C105.791 29.9118 105.791 30.1973 105.791 30.5543V42.6901C113.644 39.1921 122.853 37.1933 132.847 37.1933C143.412 37.1933 153.264 39.4777 161.402 43.404V30.5543C161.402 30.4829 161.402 30.3401 161.402 30.2687C153.192 26.4138 143.341 24.058 132.775 24.058Z" stroke="#74AA80" stroke-opacity="0.92" stroke-width="2" stroke-miterlimit="10" stroke-linecap="round" stroke-linejoin="round"/>
<path d="M57.5872 86.47L58.3011 90.896C58.3011 90.896 61.0138 101.818 72.0074 99.1055C82.7868 96.3928 80.2169 85.3991 80.2169 85.3991C80.2169 85.3991 78.3608 72.6208 75.6481 61.6986C72.9354 50.7764 60.1571 51.7044 60.1571 51.7044H41.0254H21.8222C21.8222 51.7044 9.04396 50.7764 6.33125 61.6986C3.61854 72.6208 1.76247 85.3991 1.76247 85.3991C1.76247 85.3991 -0.807469 96.3928 9.97198 99.1055C20.8942 101.818 23.6783 90.896 23.6783 90.896L24.3922 86.2558" stroke="#74AA80" stroke-opacity="0.92" stroke-width="2" stroke-miterlimit="10" stroke-linecap="round" stroke-linejoin="round"/>
<path d="M36.3138 79.0457H40.954H46.2366" stroke="#74AA80" stroke-opacity="0.92" stroke-width="2" stroke-miterlimit="10" stroke-linecap="round" stroke-linejoin="round"/>
<path d="M53.7323 52.1327V61.6986C53.7323 64.1972 51.662 66.2674 49.1635 66.2674H33.6725C31.1739 66.2674 29.1037 64.1972 29.1037 61.6986V51.7044" stroke="#74AA80" stroke-opacity="0.92" stroke-width="2" stroke-miterlimit="10" stroke-linecap="round" stroke-linejoin="round"/>
<path d="M18.1815 59.9139V71.7642" stroke="#74AA80" stroke-opacity="0.92" stroke-width="2" stroke-miterlimit="10" stroke-linecap="round" stroke-linejoin="round"/>
<path d="M24.1066 65.8391H12.2563" stroke="#74AA80" stroke-opacity="0.92" stroke-width="2" stroke-miterlimit="10" stroke-linecap="round" stroke-linejoin="round"/>
<path d="M64.6545 62.698C65.6795 62.698 66.5105 61.8671 66.5105 60.842C66.5105 59.8169 65.6795 58.9859 64.6545 58.9859C63.6294 58.9859 62.7984 59.8169 62.7984 60.842C62.7984 61.8671 63.6294 62.698 64.6545 62.698Z" stroke="#74AA80" stroke-opacity="0.92" stroke-width="2" stroke-miterlimit="10" stroke-linecap="round" stroke-linejoin="round"/>
<path d="M70.1513 67.2668C71.1764 67.2668 72.0074 66.4358 72.0074 65.4108C72.0074 64.3857 71.1764 63.5547 70.1513 63.5547C69.1263 63.5547 68.2953 64.3857 68.2953 65.4108C68.2953 66.4358 69.1263 67.2668 70.1513 67.2668Z" stroke="#74AA80" stroke-opacity="0.92" stroke-width="2" stroke-miterlimit="10" stroke-linecap="round" stroke-linejoin="round"/>
<path d="M64.6545 71.7642C65.6795 71.7642 66.5105 70.9332 66.5105 69.9081C66.5105 68.8831 65.6795 68.0521 64.6545 68.0521C63.6294 68.0521 62.7984 68.8831 62.7984 69.9081C62.7984 70.9332 63.6294 71.7642 64.6545 71.7642Z" stroke="#74AA80" stroke-opacity="0.92" stroke-width="2" stroke-miterlimit="10" stroke-linecap="round" stroke-linejoin="round"/>
<path d="M60.1571 67.2668C61.1822 67.2668 62.0132 66.4358 62.0132 65.4108C62.0132 64.3857 61.1822 63.5547 60.1571 63.5547C59.1321 63.5547 58.3011 64.3857 58.3011 65.4108C58.3011 66.4358 59.1321 67.2668 60.1571 67.2668Z" stroke="#74AA80" stroke-opacity="0.92" stroke-width="2" stroke-miterlimit="10" stroke-linecap="round" stroke-linejoin="round"/>
<path d="M28.6754 87.3266C32.9729 87.3266 36.4566 83.8428 36.4566 79.5454C36.4566 75.248 32.9729 71.7642 28.6754 71.7642C24.378 71.7642 20.8942 75.248 20.8942 79.5454C20.8942 83.8428 24.378 87.3266 28.6754 87.3266Z" stroke="#74AA80" stroke-opacity="0.92" stroke-width="2" stroke-miterlimit="10" stroke-linecap="round" stroke-linejoin="round"/>
<path d="M54.232 87.3266C58.5294 87.3266 62.0132 83.8428 62.0132 79.5454C62.0132 75.248 58.5294 71.7642 54.232 71.7642C49.9346 71.7642 46.4508 75.248 46.4508 79.5454C46.4508 83.8428 49.9346 87.3266 54.232 87.3266Z" stroke="#74AA80" stroke-opacity="0.92" stroke-width="2" stroke-miterlimit="10" stroke-linecap="round" stroke-linejoin="round"/>
</svg>
